<?xml version="1.0"?>
<svg xmlns="http://www.w3.org/2000/svg" xmlns:xlink="http://www.w3.org/1999/xlink" xmlns:svgjs="http://svgjs.com/svgjs" version="1.1" width="512" height="512" x="0" y="0" viewBox="0 0 345.578 345.578" style="enable-background:new 0 0 512 512" xml:space="preserve" class=""><g>
<g xmlns="http://www.w3.org/2000/svg">
	<g>
		<path d="M278.345,0.16V0H79.225c-24.301,0-44,19.699-44,44v39.8c0,4.418,3.582,8,8,8h67.4v225.84    c-0.162,6.985,2.068,13.816,6.32,19.36c6.028,7.745,16.469,10.539,25.56,6.84c7.977-3.503,14.592-9.514,18.84-17.12l49.08-78.28    l49.2,78.4c4.248,7.606,10.863,13.617,18.84,17.12c9.091,3.699,19.532,0.905,25.56-6.84c4.252-5.544,6.482-12.375,6.32-19.36    V32.16C310.345,14.487,296.018,0.16,278.345,0.16z M110.585,75.32h-59.4v-31.6C51.337,28.474,63.659,16.152,78.905,16h4    l-0.04,0.28c15.246,0.152,27.568,12.474,27.72,27.72V75.32z M291.185,326.96c-0.788,1.037-1.878,1.806-3.12,2.2    c-1.339,0.296-2.736,0.17-4-0.36c-4.645-2.425-8.398-6.263-10.72-10.96l-56-89.04c-0.676-1.126-1.618-2.068-2.744-2.744    c-3.789-2.273-8.703-1.044-10.976,2.744l-56.28,89.04c-2.418,4.602-6.225,8.326-10.88,10.64c-1.264,0.53-2.661,0.656-4,0.36    c-1.242-0.394-2.332-1.163-3.12-2.2c-1.92-2.686-2.878-5.942-2.72-9.24V43.76c0.013-10.124-3.493-19.937-9.92-27.76h161.64    l-0.2,0.32c8.65,0.129,15.631,7.11,15.76,15.76v285.64C294.063,321.018,293.105,324.274,291.185,326.96z" fill="#ffffff" data-original="#000000" style="" class=""/>
	</g>
</g>
<g xmlns="http://www.w3.org/2000/svg">
</g>
<g xmlns="http://www.w3.org/2000/svg">
</g>
<g xmlns="http://www.w3.org/2000/svg">
</g>
<g xmlns="http://www.w3.org/2000/svg">
</g>
<g xmlns="http://www.w3.org/2000/svg">
</g>
<g xmlns="http://www.w3.org/2000/svg">
</g>
<g xmlns="http://www.w3.org/2000/svg">
</g>
<g xmlns="http://www.w3.org/2000/svg">
</g>
<g xmlns="http://www.w3.org/2000/svg">
</g>
<g xmlns="http://www.w3.org/2000/svg">
</g>
<g xmlns="http://www.w3.org/2000/svg">
</g>
<g xmlns="http://www.w3.org/2000/svg">
</g>
<g xmlns="http://www.w3.org/2000/svg">
</g>
<g xmlns="http://www.w3.org/2000/svg">
</g>
<g xmlns="http://www.w3.org/2000/svg">
</g>
</g></svg>
