<?xml version="1.0"?>
<svg xmlns="http://www.w3.org/2000/svg" xmlns:xlink="http://www.w3.org/1999/xlink" xmlns:svgjs="http://svgjs.com/svgjs" version="1.1" width="512" height="512" x="0" y="0" viewBox="0 0 512 512" style="enable-background:new 0 0 512 512" xml:space="preserve" class=""><g><g xmlns="http://www.w3.org/2000/svg"><path d="m171.622 154.744h-40.284l-11.113 29.18-28.035-10.678 46.974-123.337 24.95-.026 45.882 121.579h93.549v-171.462h-303.545v258.161h45.903v53.377l71.363-53.377h62.189v-82.66z" fill="#ffffff" data-original="#000000" style="" class=""/><path d="m142.764 124.744h17.537l-8.728-23.127z" fill="#ffffff" data-original="#000000" style="" class=""/><path d="m355.062 366.971c5.136 0 10.034-1.034 14.502-2.899l-16.297-16.298 21.213-21.213 15.936 15.936c1.564-4.141 2.426-8.624 2.426-13.306 0-20.832-16.948-37.78-37.78-37.78s-37.78 16.948-37.78 37.78 16.948 37.78 37.78 37.78z" fill="#ffffff" data-original="#000000" style="" class=""/><path d="m208.455 200.462v258.161h186.279l71.363 53.377v-53.377h45.903v-258.161zm146.607 60.95c37.374 0 67.78 30.406 67.78 67.78 0 13.051-3.717 25.245-10.134 35.598l20.464 20.465-21.213 21.213-20.282-20.282c-10.568 6.813-23.133 10.786-36.615 10.786-37.374 0-67.78-30.406-67.78-67.78s30.406-67.78 67.78-67.78z" fill="#ffffff" data-original="#000000" style="" class=""/></g></g></svg>
