<?xml version="1.0"?>
<svg xmlns="http://www.w3.org/2000/svg" xmlns:xlink="http://www.w3.org/1999/xlink" xmlns:svgjs="http://svgjs.com/svgjs" version="1.1" width="512" height="512" x="0" y="0" viewBox="0 0 510 510" style="enable-background:new 0 0 512 512" xml:space="preserve"><g><g xmlns="http://www.w3.org/2000/svg"><path d="m510 446v34c0 16.54-13.46 30-30 30h-450c-16.54 0-30-13.46-30-30v-34c0-16.54 13.46-30 30-30h450c16.54 0 30 13.46 30 30z" fill="#ffffff" data-original="#000000" style=""/><path d="m48 196v190h414c0-8.576 0-180.633 0-190h-94v156h-66v-156h-94v156h-66v-156z" fill="#ffffff" data-original="#000000" style=""/><path d="m15 166h480c15.338 0 20.771-20.471 7.395-28.05l-240-136c-4.587-2.6-10.203-2.6-14.79 0l-240 136c-13.344 7.561-7.98 28.05 7.395 28.05z" fill="#ffffff" data-original="#000000" style=""/></g></g></svg>
